<svg id="visual" viewBox="0 0 900 675" width="900" height="675" xmlns="http://www.w3.org/2000/svg" xmlns:xlink="http://www.w3.org/1999/xlink" version="1.1"><rect x="0" y="0" width="900" height="675" fill="#001220"></rect><defs><linearGradient id="grad1_0" x1="25%" y1="100%" x2="100%" y2="0%"><stop offset="23.333333333333336%" stop-color="#715df2" stop-opacity="1"></stop><stop offset="76.66666666666666%" stop-color="#715df2" stop-opacity="1"></stop></linearGradient></defs><defs><linearGradient id="grad1_1" x1="25%" y1="100%" x2="100%" y2="0%"><stop offset="23.333333333333336%" stop-color="#715df2" stop-opacity="1"></stop><stop offset="76.66666666666666%" stop-color="#003f8a" stop-opacity="1"></stop></linearGradient></defs><defs><linearGradient id="grad1_2" x1="25%" y1="100%" x2="100%" y2="0%"><stop offset="23.333333333333336%" stop-color="#001220" stop-opacity="1"></stop><stop offset="76.66666666666666%" stop-color="#003f8a" stop-opacity="1"></stop></linearGradient></defs><defs><linearGradient id="grad2_0" x1="0%" y1="100%" x2="75%" y2="0%"><stop offset="23.333333333333336%" stop-color="#715df2" stop-opacity="1"></stop><stop offset="76.66666666666666%" stop-color="#715df2" stop-opacity="1"></stop></linearGradient></defs><defs><linearGradient id="grad2_1" x1="0%" y1="100%" x2="75%" y2="0%"><stop offset="23.333333333333336%" stop-color="#003f8a" stop-opacity="1"></stop><stop offset="76.66666666666666%" stop-color="#715df2" stop-opacity="1"></stop></linearGradient></defs><defs><linearGradient id="grad2_2" x1="0%" y1="100%" x2="75%" y2="0%"><stop offset="23.333333333333336%" stop-color="#003f8a" stop-opacity="1"></stop><stop offset="76.66666666666666%" stop-color="#001220" stop-opacity="1"></stop></linearGradient></defs><g transform="translate(900, 675)"><path d="M-534.4 0C-547.9 -56.4 -561.5 -112.8 -506.1 -135.6C-450.8 -158.4 -326.5 -147.5 -275.4 -159C-224.3 -170.5 -246.5 -204.2 -258.8 -258.8C-271.1 -313.4 -273.7 -388.7 -252 -436.5C-230.3 -484.2 -184.3 -504.4 -138.3 -516.2C-92.3 -527.9 -46.1 -531.1 0 -534.4L0 0Z" fill="#002a53"></path><path d="M-356.2 0C-365.3 -37.6 -374.3 -75.2 -337.4 -90.4C-300.5 -105.6 -217.7 -98.4 -183.6 -106C-149.5 -113.6 -164.3 -136.2 -172.5 -172.5C-180.8 -208.9 -182.5 -259.1 -168 -291C-153.5 -322.8 -122.9 -336.3 -92.2 -344.1C-61.5 -351.9 -30.8 -354.1 0 -356.2L0 0Z" fill="#2651c0"></path><path d="M-178.1 0C-182.6 -18.8 -187.2 -37.6 -168.7 -45.2C-150.3 -52.8 -108.8 -49.2 -91.8 -53C-74.8 -56.8 -82.2 -68.1 -86.3 -86.3C-90.4 -104.5 -91.2 -129.6 -84 -145.5C-76.8 -161.4 -61.4 -168.1 -46.1 -172.1C-30.8 -176 -15.4 -177 0 -178.1L0 0Z" fill="#715df2"></path></g><g transform="translate(0, 0)"><path d="M534.4 0C557.8 60.7 581.3 121.5 516.2 138.3C451 155.1 297.3 128 248.5 143.5C199.8 159 256.1 217.1 268 268C279.9 318.9 247.4 362.5 209 362C170.6 361.5 126.4 316.7 90.6 338.1C54.8 359.4 27.4 446.9 0 534.4L0 0Z" fill="#002a53"></path><path d="M356.3 0C371.9 40.5 387.5 81 344.1 92.2C300.7 103.4 198.2 85.3 165.7 95.7C133.2 106 170.7 144.7 178.7 178.7C186.6 212.6 164.9 241.7 139.3 241.3C113.8 241 84.3 211.1 60.4 225.4C36.5 239.6 18.3 297.9 0 356.3L0 0Z" fill="#2651c0"></path><path d="M178.1 0C185.9 20.2 193.8 40.5 172.1 46.1C150.3 51.7 99.1 42.7 82.8 47.8C66.6 53 85.4 72.4 89.3 89.3C93.3 106.3 82.5 120.8 69.7 120.7C56.9 120.5 42.1 105.6 30.2 112.7C18.3 119.8 9.1 149 0 178.1L0 0Z" fill="#715df2"></path></g></svg>